<svg width="16" height="17" viewBox="0 0 16 17" fill="none" xmlns="http://www.w3.org/2000/svg">
<g id="phone (1)">
<path id="Vector" d="M14.6669 11.5307V13.5307C14.6677 13.7164 14.6297 13.9002 14.5553 14.0703C14.4809 14.2404 14.3718 14.3931 14.235 14.5186C14.0982 14.6441 13.9367 14.7397 13.7608 14.7992C13.5849 14.8587 13.3985 14.8808 13.2136 14.864C11.1622 14.6411 9.19161 13.9401 7.46028 12.8174C5.8495 11.7938 4.48384 10.4282 3.46028 8.81738C2.3336 7.07819 1.63244 5.09805 1.41361 3.03738C1.39695 2.85303 1.41886 2.66722 1.47795 2.4918C1.53703 2.31637 1.63199 2.15518 1.75679 2.01846C1.88159 1.88175 2.03348 1.77252 2.20281 1.69773C2.37213 1.62294 2.55517 1.58422 2.74028 1.58405H4.74028C5.06382 1.58086 5.37748 1.69543 5.62279 1.9064C5.8681 2.11737 6.02833 2.41035 6.07361 2.73072C6.15803 3.37076 6.31458 3.9992 6.54028 4.60405C6.62998 4.84266 6.64939 5.10199 6.59622 5.3513C6.54305 5.60061 6.41952 5.82946 6.24028 6.01072L5.39361 6.85738C6.34265 8.52641 7.72458 9.90835 9.39361 10.8574L10.2403 10.0107C10.4215 9.83147 10.6504 9.70795 10.8997 9.65478C11.149 9.60161 11.4083 9.62102 11.6469 9.71072C12.2518 9.93642 12.8802 10.093 13.5203 10.1774C13.8441 10.2231 14.1399 10.3862 14.3513 10.6357C14.5627 10.8852 14.6751 11.2038 14.6669 11.5307Z" stroke="white" stroke-linecap="round" stroke-linejoin="round"/>
</g>
</svg>
